<svg width="387" height="399" viewBox="0 0 387 399" fill="none" xmlns="http://www.w3.org/2000/svg">
<path fill-rule="evenodd" clip-rule="evenodd" d="M68.6049 4.23305C68.7257 4.50428 68.2634 6.00669 67.5781 7.5709C64.9141 13.6534 65.0686 18.1197 68.2397 26.654C69.3561 29.6582 70.845 34.423 71.5493 37.2421C76.8934 58.6396 78.8517 63.8253 84.5679 71.7169C86.4661 74.3368 88.6564 77.8552 89.4365 79.5349C90.2159 81.2149 91.2906 82.998 91.8251 83.4971C92.3725 84.0086 90.6822 80.0317 87.955 74.3909C84.8346 67.9361 82.5276 62.4145 81.4635 58.8536C79.4238 52.0296 76.3799 35.3333 75.381 25.4848C74.5019 16.8233 74.4759 15.2702 75.1279 10.5204C75.3979 8.5575 75.5829 6.43266 75.5387 5.79902C75.4052 3.86024 76.7681 3.15562 82.1076 2.40059C102.359 -0.463622 120.923 1.02266 139.393 6.98604C147.245 9.5216 152.124 11.8306 155.863 14.7801C158.829 17.1195 163.298 22.8213 164.819 26.2067C166.461 29.8603 167.385 36.6226 166.921 41.5781C166.389 47.2601 162.648 61.7177 159.597 69.8872C158.157 73.7414 157.184 76.974 157.436 77.0705C158.198 77.3628 164.055 66.4964 166.184 60.8397C168.351 55.0816 171.773 42.5794 172.778 36.7463C173.482 32.6609 173.407 29.5363 172.531 26.4568C172.205 25.3118 171.903 23.4863 171.859 22.4002L171.78 20.4253L173.711 22.5808C176.743 25.9639 180.406 31.0893 181.419 33.3631C182.765 36.3869 182.924 42.0327 181.771 45.8943C181.219 47.7446 180.359 50.9477 179.86 53.0124C179.362 55.0769 178.202 58.556 177.283 60.743L175.612 64.7195L177.529 62.4139C182.621 56.2889 185.877 49.0801 186.698 42.1102C187.043 39.1693 187.767 36.6937 188.574 35.6844C189.296 34.7812 189.997 34.0913 190.131 34.1507C190.265 34.2104 192.533 39.6542 195.172 46.2477C201.022 60.8678 201.458 63.2528 199.541 70.1536C197.021 79.2323 190.334 89.1128 173.742 108.277C171.618 110.731 169.724 112.808 169.534 112.893C169.343 112.978 168.553 113.759 167.779 114.628C167.005 115.497 164.838 117.844 162.964 119.844C158.238 124.886 144.084 142.096 142.966 144.159C142.413 145.179 147.254 141.043 155.102 133.79C172.241 117.95 174.058 116.242 175.652 114.476C176.392 113.656 179.374 110.532 182.278 107.535C188.767 100.836 200.548 86.8703 202.783 83.2272C203.691 81.7473 205.132 78.7184 205.984 76.4961C207.763 71.8633 207.889 71.9778 209.45 79.6257C211.901 91.6464 212.733 94.6694 215.02 99.8629C216.958 104.265 217.417 105.953 217.41 108.664C217.394 115.241 215.454 125.08 212.061 135.806C209.972 142.408 209.656 143.154 204.983 152.511C201.152 160.181 200.284 162.777 202.715 159.292C203.478 158.199 206.232 154.639 208.835 151.381C212.827 146.384 217.369 140.125 220.878 134.784C222.412 132.45 224.902 125.207 225.078 122.57L225.255 119.913L226.264 122.144C228.43 126.927 230.508 135.706 230.327 139.307C229.964 146.543 225.93 155.296 218.68 164.581C218.229 165.159 214.767 169.327 210.987 173.843C205.615 180.26 203.721 183.017 202.319 186.463C200.49 190.957 200.687 192.165 203.075 191.102C204.97 190.258 205.99 189.047 214.687 177.318C228.425 158.79 234.549 148.779 237.173 140.564C238.648 135.947 239.289 135.797 239.06 140.123C238.985 141.54 239.227 144.916 239.598 147.625C240.231 152.241 240.419 152.745 242.593 155.644C244.139 157.706 246.494 162.277 249.657 169.357L254.401 179.976L258.021 183.047C261.434 185.943 261.747 186.395 263.528 190.982C265.716 196.62 265.887 200.327 264.324 208.332C263.136 214.42 255.595 234.543 251.165 243.446C249.415 246.964 246.922 252.403 245.625 255.531C243.203 261.374 238.725 277.046 239.403 277.305C239.612 277.386 240.894 275.011 242.253 272.029C244.491 267.117 247.886 260.392 254.077 248.602C257.308 242.45 262.191 231.198 265.695 221.834C268.122 215.346 268.859 212.303 269.203 207.347C269.443 203.897 269.905 200.474 270.229 199.739C270.787 198.477 270.946 198.632 273.158 202.587C274.444 204.887 276.52 208.122 277.771 209.777C279.022 211.431 280.784 214.416 281.688 216.409C282.592 218.402 284.539 221.455 286.015 223.193C287.492 224.932 290.001 227.878 291.592 229.742C295.974 234.875 298.203 241.107 297.316 245.739C297.111 246.808 297.08 247.99 297.246 248.364C297.413 248.739 296.715 251.133 295.694 253.684C293.773 258.488 290.587 262.373 277.604 275.737C267.455 286.186 261.55 296.119 263.237 299.908C263.507 300.514 264.072 299.379 264.757 296.855C266.024 292.187 268.836 288.147 275.124 281.96C280.983 276.196 287.757 271.683 293.127 269.965C295.385 269.243 298.617 268.068 300.308 267.353C303.208 266.126 303.408 265.91 303.827 263.552C304.071 262.176 304.064 259.541 303.811 257.695C303.559 255.85 303.586 254.235 303.872 254.108C304.161 253.98 305.628 256.654 307.177 260.133C310.451 267.487 311.505 273.037 311.166 281.139C310.806 289.727 309.536 295.887 306.934 301.661C301.893 312.852 300.394 317.28 300.317 321.2C300.25 324.686 300.521 325.7 302.998 331.222C305.574 336.962 305.979 337.555 309.152 340.231C311.021 341.807 313.614 343.757 314.914 344.564C316.214 345.372 317.326 346.142 317.386 346.276C317.446 346.41 318.989 347.505 320.815 348.709C322.64 349.912 324.2 351.045 324.28 351.226C324.361 351.407 325.2 352.028 326.145 352.605C327.09 353.184 333.286 357.122 339.914 361.358C346.543 365.593 352.154 369.126 352.385 369.207C353.608 369.641 369.411 379.963 372.212 382.157C374.012 383.567 375.872 385.001 376.346 385.342C379.724 387.776 384.55 393.327 385.901 396.333C386.928 398.616 385.879 399.195 382.194 398.382C376.445 397.113 357.734 388.776 346.957 382.68C344.769 381.443 342.576 380.261 342.083 380.054C341.59 379.846 339.737 378.711 337.966 377.531C336.195 376.351 334.541 375.326 334.292 375.252C332.641 374.77 318.103 365.186 308.204 358.054C298.436 351.015 296.741 350.074 293.103 349.668C287.079 348.995 279.812 350.909 258.311 358.83C239.021 365.936 232.267 366.184 215.545 360.403C208.486 357.962 195.2 351.257 185.385 345.181C181.743 342.927 175.717 339.925 171.996 338.511C168.273 337.096 165.334 335.892 165.462 335.835C167.353 334.993 173.937 335.061 179.059 335.975C188.456 337.652 197.751 337.596 208.521 335.798C217.647 334.274 234.064 329.769 232.701 329.162C232.469 329.058 230.166 329.303 227.583 329.707C220.837 330.76 211.01 331.257 200.88 331.057C198.183 331.004 195.871 331.007 195.743 331.064C195.391 331.221 182.428 329.819 179.318 329.288C173.133 328.232 163.876 325.197 159.656 322.842C157.178 321.459 152.806 318.43 149.942 316.111C140.626 308.57 134.27 304.567 126.512 301.355L121.172 299.145L123.588 298.553C124.918 298.227 126.468 297.985 127.034 298.013C131.106 298.22 146.709 295.933 149.468 294.725C154.564 292.494 164.6 291.851 171.042 293.344C173.211 293.847 175.048 294.093 175.126 293.89C175.629 292.58 159.927 289.535 154.584 289.906C146.878 290.441 131.308 290.614 127.926 290.203C125.478 289.905 122.452 288.928 120.392 287.769C118.498 286.703 116.603 285.785 116.18 285.728C115.124 285.585 107.455 281.129 107.173 280.495C106.828 279.72 110.27 280.418 116.749 282.437C124.494 284.851 126.521 285.024 133.118 283.835C136.189 283.281 140.306 282.549 142.267 282.207C144.229 281.865 146.421 281.324 147.14 281.004C147.859 280.684 149.721 280.283 151.277 280.114C152.833 279.943 156.683 279.494 159.831 279.115C162.979 278.736 166.329 278.472 167.276 278.53C168.223 278.587 169.195 278.549 169.435 278.445C170.361 278.041 180.618 278.496 187.018 279.225C197.715 280.442 205.348 282.199 213.979 285.429C223.609 289.033 224.316 289.248 223.971 288.472C223.668 287.792 211.179 282.034 202.136 278.404C193.879 275.091 184.035 272.225 177.419 271.209C174.452 270.753 171.154 270.225 170.091 270.035C167.965 269.655 158.269 269.142 144.12 268.661C123.372 267.955 112.079 266.049 101.651 261.492C91.4848 257.049 88.3108 254.029 74.2293 235.401C72.3532 232.919 69.1283 228.776 67.0623 226.195C64.9969 223.613 62.5681 220.473 61.6656 219.216C58.6302 214.991 57.1616 213.554 49.4279 207.243C41.8757 201.079 36.5907 196.206 37.1763 195.945C37.3384 195.873 38.9991 196.515 40.8662 197.371C47.2702 200.309 61.715 204.125 67.9929 204.537C69.7012 204.649 73.8259 204.934 77.1592 205.17C83.1685 205.596 86.2461 205.311 82.768 204.651C81.7726 204.463 80.6149 204.215 80.1958 204.101C79.7767 203.988 77.639 203.507 75.4451 203.035C66.6253 201.134 47.7918 193.781 46.9604 191.913C46.8516 191.669 45.8374 190.947 44.7067 190.31C42.5561 189.098 32.3305 181.63 32.0939 181.099C31.6057 180.002 27.8004 178.709 25.6846 178.922C21.4235 179.35 22.8341 176.883 27.4818 175.778C30.037 175.171 33.7385 176.295 40.0147 179.585C42.6869 180.986 46.4894 182.675 48.4651 183.34C51.9477 184.511 64.092 185.377 74.8035 185.217C83.5672 185.087 116.472 186.531 120.331 187.216C122.378 187.579 124.519 187.852 125.09 187.822C126.822 187.731 125.222 186.696 122.615 186.221C121.297 185.982 118.384 185.242 116.141 184.579C108.693 182.375 96.0953 180.415 75.519 178.259C72.82 177.976 61.4633 176.279 58.2665 175.68C50.9303 174.308 46.4058 172.986 38.0763 169.787C29.9257 166.657 27.6968 165.503 24.4597 162.742C20.2399 159.141 14.0748 151.642 13.3213 149.193C12.9156 147.874 13.4777 148.125 17.2693 150.957C24.338 156.234 29.0616 158.787 35.8506 160.997C42.5891 163.192 44.9755 163.067 39.0171 160.832C27.0001 156.326 18.4705 149.549 9.65514 137.505C4.78458 130.85 4.99681 131.202 5.67349 130.9C6.28586 130.628 8.81892 132.406 17.6039 139.273C23.7828 144.104 24.735 144.602 36.2865 149.048C48.6502 153.806 50.7736 154.382 65.571 157.003C76.8079 158.993 76.3969 158.951 74.7284 157.962C73.9788 157.518 70.8801 156.052 67.8414 154.704C63.0709 152.588 50.8513 145.945 35.9991 137.394C24.0499 130.515 14.66 123.832 8.16666 117.586C3.97835 113.558 0.496018 105.737 0.305148 99.9289C-0.266362 82.5727 3.92072 64.5714 11.8043 50.4914C15.6811 43.5688 16.7673 41.9688 21.5174 36.1859C26.3478 30.3049 29.1021 27.3269 30.1367 26.8663C30.6216 26.6504 31.3938 25.9903 31.8522 25.4003C34.0065 22.6279 44.3223 15.9583 53.1389 11.6376C58.1309 9.19123 63.6035 6.41289 65.3001 5.46453C66.9967 4.51617 68.4841 3.96182 68.6049 4.23305ZM123.128 136.737C132.62 154.627 135.486 159.692 145.918 177.014C155.173 192.382 169.585 213.46 179.286 225.816C180.894 227.864 183.409 231.117 184.876 233.044C186.342 234.971 188.732 237.978 190.187 239.725C191.642 241.473 193.987 244.349 195.399 246.116C196.811 247.883 198.735 250.192 199.676 251.248C200.617 252.303 203.091 255.121 205.175 257.51C212.716 266.157 226.133 280.642 228.904 283.131C229.453 283.623 231.125 285.291 232.62 286.837C235.959 290.289 238.596 292.92 240.514 294.714C241.314 295.463 243.367 297.414 245.075 299.049C246.782 300.684 248.978 302.722 249.953 303.578C250.928 304.433 253.896 307.032 256.546 309.354C259.196 311.675 262.47 314.59 263.819 315.832C271.665 323.049 297.822 343.333 309.892 351.562C315.11 355.119 318.417 357.349 319.21 357.844C319.726 358.167 322.329 359.873 324.994 361.635C331.884 366.191 338.42 370.342 338.95 370.498C339.199 370.572 340.583 371.485 342.026 372.529C345.14 374.779 351.326 377.683 349.299 375.942C348.592 375.335 345.248 373.055 341.868 370.874C331.363 364.098 329.911 363.104 320.22 356.054C307.348 346.691 301.328 341.974 286.956 329.989C280.185 324.343 274.204 319.382 273.666 318.965C273.128 318.548 269.974 315.731 266.659 312.704C263.343 309.677 259.606 306.299 258.353 305.199C257.1 304.098 254.678 301.859 252.97 300.224C251.262 298.589 249.201 296.642 248.389 295.898C247.578 295.153 245.028 292.67 242.722 290.38C238.977 286.66 237.125 284.778 231.488 278.965C230.614 278.064 228.764 276.174 227.377 274.764C224.562 271.905 207.411 253.019 204.194 249.236C203.058 247.899 200.91 245.388 199.423 243.654C197.935 241.921 195.208 238.612 193.362 236.301C191.517 233.99 189.594 231.68 189.091 231.167C187.422 229.47 171.298 208.555 166.208 201.485C164.701 199.392 161.976 195.63 160.153 193.124C158.33 190.619 155.439 186.478 153.73 183.922C152.021 181.366 148.832 176.605 146.644 173.34C144.456 170.076 141.045 164.81 139.063 161.639C137.081 158.467 133.903 153.383 132.001 150.342C130.099 147.3 127.395 142.624 125.993 139.95C122.947 134.14 121.393 131.646 120.943 131.846C120.761 131.927 121.743 134.129 123.128 136.737Z" fill="#EDEDED"/>
</svg>
