<svg width="266" height="424" viewBox="0 0 266 424" fill="none" xmlns="http://www.w3.org/2000/svg">
<path fill-rule="evenodd" clip-rule="evenodd" d="M22.2725 32.5256C22.455 32.7146 23.8405 32.8334 25.3507 32.7896C31.2227 32.6202 34.8351 34.2271 40.7844 39.6565C42.8786 41.5678 46.2936 44.3682 48.3725 45.8801C64.1528 57.3548 67.7574 60.6797 72.3362 67.9837C73.8561 70.409 76.0162 73.3716 77.1355 74.5681C78.2551 75.7642 79.3616 77.2366 79.5939 77.8405C79.832 78.459 77.1301 75.7546 73.407 71.6482C69.1466 66.9495 65.382 63.2273 62.8138 61.1744C57.8924 57.2398 45.2059 49.2098 37.4587 45.1267C30.6454 41.5351 29.3801 40.9991 25.268 39.9599C23.5685 39.5307 21.7642 38.9784 21.2591 38.7321C19.7131 37.9801 18.6835 38.8645 16.2946 42.994C7.23399 58.6557 2.30071 74.376 1.07138 91.5018C0.549003 98.7827 0.825774 103.551 2.00604 107.595C2.94199 110.803 6.13803 116.358 8.41073 118.728C10.8636 121.285 16.1039 124.285 20.3225 125.546C25.1594 126.993 38.2581 128.716 45.9705 128.92C49.6092 129.016 52.583 129.29 52.5789 129.528C52.5659 130.25 41.7117 131.453 36.3661 131.325C30.9249 131.194 19.536 129.858 14.4181 128.749C10.8338 127.973 8.29567 126.876 6.06021 125.136C5.2289 124.49 3.83167 123.637 2.95539 123.241L1.36165 122.521L2.48967 124.82C4.2601 128.428 7.25001 133.131 8.77963 134.715C10.8137 136.822 15.392 138.823 18.9416 139.157C20.6424 139.317 23.5546 139.674 25.4135 139.949C27.2719 140.225 30.5101 140.426 32.6087 140.397L36.4243 140.344L33.8977 141.152C27.1861 143.299 20.1941 143.581 14.205 141.944C11.6782 141.253 9.40787 141.026 8.31252 141.353C7.33229 141.647 6.5342 141.993 6.53844 142.123C6.54307 142.252 10.2566 145.917 14.7905 150.266C24.844 159.91 26.6558 161.058 32.9513 161.773C41.2333 162.714 51.5539 160.504 72.7717 153.245C75.4888 152.316 77.8203 151.451 77.9528 151.323C78.0856 151.195 78.9878 150.806 79.9575 150.459C80.9272 150.112 83.5705 149.113 85.8317 148.238C91.534 146.033 110.341 140.126 112.404 139.892C113.424 139.777 108.427 142.377 99.8768 146.41C81.2038 155.22 79.201 156.144 77.224 156.866C76.3059 157.201 72.7557 158.612 69.3347 160.001C61.689 163.104 46.3294 168.139 42.6007 168.764C41.0857 169.019 38.1239 169.197 36.0185 169.16C31.6291 169.083 31.681 169.225 37.4372 173.039C46.4846 179.034 48.6885 180.718 52.1907 184.315C55.1593 187.364 56.3919 188.299 58.6176 189.192C64.0176 191.359 72.7312 193.028 82.6539 193.799C88.7617 194.274 89.4778 194.262 98.7021 193.53C106.263 192.93 108.68 193.078 105.015 193.917C103.866 194.18 100.033 195.259 96.4979 196.315C91.0763 197.934 84.4373 199.585 78.8931 200.693C76.4706 201.178 69.7039 200.82 67.4834 200.091L65.245 199.355L66.7404 200.922C69.9464 204.284 76.4588 208.898 79.472 209.943C85.5281 212.043 94.0443 211.635 104.063 208.765C104.686 208.587 109.252 207.128 114.209 205.524C121.254 203.244 124.143 202.605 127.434 202.596C131.726 202.586 132.652 203.147 130.988 204.754C129.668 206.029 128.337 206.464 115.833 209.711C96.0837 214.839 85.842 216.545 78.2341 215.975C73.9582 215.654 73.6232 216.13 77.2476 217.376C78.4343 217.784 81.1229 219.102 83.2226 220.304C86.7989 222.352 87.1502 222.674 88.8074 225.418C89.9863 227.37 92.9556 230.817 97.7143 235.757L104.853 243.168L106.172 247.154C107.417 250.913 107.683 251.32 110.855 254.301C114.755 257.964 117.74 259.333 124.823 260.704C130.211 261.747 149.216 262.231 157.986 261.547C161.453 261.278 166.74 261.035 169.735 261.008C175.331 260.958 189.669 262.478 189.658 263.121C189.654 263.318 187.282 263.584 184.385 263.71C179.614 263.918 172.973 264.473 161.251 265.644C155.133 266.256 144.286 266.533 135.444 266.303C129.318 266.144 126.578 265.74 122.399 264.38C119.489 263.433 116.528 262.677 115.818 262.7C114.598 262.74 114.672 262.921 117.183 266.046C118.643 267.863 120.61 270.638 121.552 272.213C122.495 273.787 124.358 276.222 125.694 277.623C127.029 279.025 128.888 281.634 129.825 283.421C130.761 285.208 132.347 288.243 133.348 290.166C136.107 295.461 140.479 299.355 144.573 300.162C145.518 300.349 146.498 300.715 146.749 300.975C147.001 301.236 149.196 301.457 151.627 301.465C156.204 301.481 160.447 300.155 175.712 293.935C187.645 289.073 197.75 287.522 200.299 290.161C200.707 290.583 199.589 290.67 197.291 290.396C193.042 289.888 188.796 290.856 181.638 293.964C174.968 296.859 169.021 300.92 165.833 304.755C164.492 306.368 162.457 308.63 161.31 309.779C159.343 311.752 159.099 311.844 157.026 311.406C155.817 311.15 153.658 310.272 152.228 309.453C150.797 308.634 149.464 308.121 149.265 308.314C149.064 308.508 150.771 310.597 153.111 313.021C158.059 318.144 162.262 320.847 169.02 323.254C176.183 325.805 181.657 326.805 187.256 326.585C198.106 326.158 202.235 326.396 205.475 327.632C208.357 328.733 209.099 329.291 212.808 333.153C216.662 337.168 217.014 337.696 218.158 341.186C218.831 343.242 219.571 346.014 219.803 347.348C220.034 348.682 220.297 349.85 220.387 349.944C220.478 350.037 220.864 351.665 221.246 353.562C221.628 355.458 222.041 357.113 222.162 357.239C222.284 357.365 222.515 358.259 222.676 359.226C222.837 360.192 224.014 366.58 225.292 373.42C226.57 380.261 227.608 386.034 227.598 386.251C227.549 387.398 230.778 403.781 231.649 406.806C232.209 408.749 232.769 410.75 232.892 411.252C233.769 414.83 236.723 420.627 238.74 422.732C240.273 424.331 241.096 423.662 241.65 420.37C242.514 415.234 241.876 397.124 240.448 386.263C240.158 384.059 239.916 381.868 239.909 381.395C239.902 380.922 239.585 379.026 239.204 377.183C238.823 375.339 238.53 373.642 238.553 373.413C238.704 371.9 235.66 356.798 233.091 346.315C230.555 335.97 230.344 334.268 231.217 331.15C232.661 325.985 236.64 320.658 250.262 305.647C262.484 292.18 264.926 286.722 265.725 271.09C266.063 264.49 264.966 251.371 263.235 241.306C262.593 237.572 262.128 231.634 262.201 228.113C262.274 224.591 262.261 221.781 262.171 221.867C260.854 223.139 258.728 228.562 257.78 233.066C256.041 241.33 252.915 248.935 247.871 257.174C243.597 264.154 234.46 276.127 234.414 274.809C234.406 274.584 235.371 272.776 236.557 270.791C239.657 265.607 243.321 257.711 246.514 249.335C247.364 247.106 248.133 245.21 248.223 245.124C248.468 244.887 251.614 233.79 252.209 231.063C253.392 225.639 253.971 217.041 253.438 212.799C253.124 210.308 252.089 205.718 251.136 202.6C248.038 192.46 246.86 185.919 246.798 178.491L246.754 173.379L245.467 175.165C244.76 176.147 244.047 177.339 243.883 177.812C242.703 181.221 235.656 193.261 233.751 195.124C230.232 198.564 226.379 206.584 225.469 212.363C225.162 214.308 224.755 215.897 224.563 215.893C223.322 215.871 226.027 201.983 228.103 197.723C231.095 191.58 236.398 178.866 237.181 175.956C237.748 173.848 237.949 171.043 237.681 168.969C237.435 167.063 237.309 165.204 237.403 164.837C237.635 163.924 236.522 156.157 236.096 155.715C235.574 155.175 235.006 158.23 234.515 164.214C233.928 171.367 233.399 173.087 230.237 178.104C228.765 180.439 226.8 183.574 225.87 185.069C224.939 186.565 223.769 188.184 223.268 188.668C222.767 189.151 221.822 190.545 221.166 191.766C220.511 192.986 218.867 195.994 217.513 198.451C216.158 200.907 214.832 203.568 214.565 204.364C214.299 205.16 213.945 205.944 213.78 206.107C213.142 206.732 210.116 215.296 208.592 220.788C206.046 229.965 204.957 236.809 204.747 244.958C204.511 254.052 204.454 254.703 203.932 254.163C203.474 253.689 202.89 241.537 202.91 232.916C202.928 225.045 203.84 216.021 205.199 210.257C205.808 207.673 206.468 204.793 206.664 203.858C207.057 201.988 209.85 193.864 214.144 182.099C220.441 164.847 222.62 154.952 222.338 144.889C222.063 135.077 220.638 131.473 210.024 113.749C208.611 111.387 206.281 107.369 204.849 104.819C203.415 102.27 201.645 99.2367 200.913 98.0799C198.453 94.1897 197.761 92.5089 195.147 84.0737C192.594 75.8364 190.348 69.8864 189.941 70.2803C189.828 70.3894 189.803 71.9642 189.887 73.7796C190.175 80.006 188.518 93.119 186.775 98.405C186.301 99.8433 185.167 103.321 184.257 106.134C182.615 111.204 181.361 113.634 181.972 110.562C182.148 109.683 182.328 108.652 182.374 108.27C182.419 107.889 182.734 105.976 183.073 104.02C184.437 96.1554 184.647 78.2704 183.391 76.9696C183.226 76.7994 182.971 75.7282 182.823 74.5897C182.541 72.4239 179.804 61.5614 179.447 61.1913C178.709 60.4273 178.91 56.8778 179.786 55.2128C181.549 51.8594 179.058 52.199 176.611 55.645C175.266 57.5396 174.962 60.9483 175.58 67.1867C175.844 69.8428 175.97 73.5218 175.86 75.3625C175.666 78.6073 172.352 88.8556 168.671 97.5889C165.66 104.734 155.94 132.203 155.223 135.596C154.842 137.395 154.356 139.241 154.142 139.7C153.494 141.09 153.175 139.435 153.65 137.139C153.89 135.979 154.249 133.345 154.448 131.284C155.109 124.444 157.676 113.462 162.726 95.8697C163.389 93.5622 165.76 83.6842 166.329 80.8638C167.634 74.3913 168.05 70.2422 168.186 62.3498C168.319 54.6267 168.112 52.4162 166.92 48.8458C165.365 44.1912 161.257 36.6492 159.498 35.2194C158.55 34.4495 158.57 34.9937 159.636 39.0422C161.622 46.5894 162.151 51.3099 161.714 57.611C161.28 63.8655 160.388 65.7818 160.529 60.1538C160.815 48.8032 158.083 39.5609 151.125 28.3386C147.281 22.1382 147.499 22.4288 147.028 22.884C146.601 23.296 147.22 25.9629 149.942 35.4448C151.857 42.1141 151.95 43.0602 151.768 54.0085C151.573 65.7268 151.342 67.6596 148.588 80.6657C146.497 90.5423 146.598 90.191 146.34 88.4948C146.224 87.7329 146.049 84.7053 145.95 81.7659C145.795 77.1515 144.396 64.9271 142.304 49.9107C140.621 37.8295 138.252 27.9129 135.28 20.5166C133.364 15.7463 128.103 10.2978 123.402 8.21652C109.355 1.99584 93.2018 -0.535387 79.04 1.265C72.0769 2.15079 70.4046 2.5115 64.0869 4.49128C57.6622 6.50443 54.3067 7.7768 53.586 8.47277C53.2483 8.79894 52.4509 9.2136 51.815 9.394C48.827 10.2423 39.9376 16.4936 33.4716 22.2935C29.8106 25.5774 25.718 29.1457 24.3779 30.223C23.0377 31.3004 22.0901 32.3367 22.2725 32.5256ZM112.89 121.16C124.419 134.875 127.624 138.905 138.375 153.202C147.913 165.887 160.426 184.693 167.346 196.746C168.494 198.744 170.328 201.884 171.423 203.726C172.517 205.567 174.191 208.524 175.143 210.297C176.094 212.069 177.676 214.946 178.658 216.69C179.639 218.433 180.896 220.777 181.449 221.899C182.004 223.02 183.495 225.984 184.764 228.485C189.357 237.536 196.793 253.341 197.915 256.439C198.138 257.052 198.952 258.977 199.724 260.715C201.449 264.598 202.733 267.633 203.569 269.801C203.918 270.706 204.838 273.036 205.613 274.979C206.389 276.921 207.333 279.397 207.711 280.481C208.09 281.565 209.239 284.86 210.264 287.803C211.29 290.746 212.596 294.397 213.167 295.916C216.487 304.743 224.457 332.92 227.206 345.548C228.395 351.007 229.128 354.459 229.272 355.273C229.366 355.803 229.902 358.504 230.464 361.273C231.918 368.436 233.157 375.172 233.109 375.659C233.087 375.887 233.377 377.325 233.755 378.855C234.569 382.154 234.901 388.191 234.145 385.951C233.881 385.171 233.119 381.672 232.451 378.177C230.374 367.314 230.039 365.794 227.469 355.508C224.054 341.847 222.18 335.346 217.112 319.585C214.725 312.16 212.638 305.611 212.475 305.031C212.311 304.451 211.045 300.931 209.661 297.208C208.276 293.485 206.745 289.301 206.257 287.908C205.77 286.516 204.736 283.787 203.961 281.844C203.186 279.901 202.272 277.565 201.93 276.653C201.588 275.741 200.397 272.826 199.282 270.176C197.472 265.871 196.542 263.729 193.642 257.178C193.193 256.163 192.255 254.019 191.559 252.414C190.146 249.157 180.339 228.83 178.302 224.938C177.582 223.563 176.234 220.969 175.305 219.174C174.377 217.38 172.566 214.046 171.282 211.766C169.998 209.487 168.74 207.144 168.487 206.561C167.647 204.63 155.836 184.473 151.723 177.955C150.505 176.025 148.323 172.543 146.872 170.217C145.421 167.892 142.982 164.149 141.452 161.899C139.922 159.651 137.073 155.457 135.121 152.58C133.169 149.704 129.98 145.161 128.035 142.484C126.09 139.807 122.973 135.516 121.109 132.948C119.244 130.379 116.305 126.612 114.576 124.576C110.82 120.151 109.289 118.05 109.603 117.748C109.73 117.625 111.209 119.161 112.89 121.16Z" fill="#ededed"/>
</svg>
